<svg id="Layer_1" data-name="Layer 1" xmlns="http://www.w3.org/2000/svg" viewBox="0 0 180 54.45"><defs><style>.cls-1{fill:#231f20;}</style></defs><title>Untitled-1</title><path class="cls-1" d="M26.55,41.57L25.8,43.63l-1.5-.19,0.38,6.75H17.92l0.38-6.75-1.5.19L16,41.57l3.75-1.12a1.62,1.62,0,0,0,1.5.94,1.6,1.6,0,0,0,1.5-.94Z" transform="translate(-16.05 -39.32)"/><path class="cls-1" d="M33.3,40.45L37,41.57,36.3,43.63l-1.5-.19,0.38,6.77H28.42l0.38-6.77-1.5.19-0.75-2.06,3.75-1.12a1.62,1.62,0,0,0,1.5.94A1.6,1.6,0,0,0,33.3,40.45ZM30,41.34l-2.44.73,0.26,0.75,0.91-.09,0.89-.12,0,0.89-0.33,6h5.16l-0.33-6,0-.89,0.89,0.12,0.91,0.09,0.26-.75-2.44-.73a1.7,1.7,0,0,1-.49.45A2.58,2.58,0,0,1,30,41.34Z" transform="translate(-16.05 -39.32)"/><path class="cls-1" d="M45.67,39.32H49V42.7H48.11V40.92l-2.37,2.34a3.09,3.09,0,0,1,.3,1.31,3,3,0,0,1-2.44,3v1.22H45.3v1.08H43.61v1.5H42.49v-1.5H40.8V48.74h1.69V47.52a2.86,2.86,0,0,1-1.75-1A2.93,2.93,0,0,1,40,44.57a3.09,3.09,0,0,1,.3-1.31l-0.52-.52L39,43.59l-0.77-.77L39.06,42,38,40.92V42.7H37V39.32h3.38v0.94H38.78l1,1,0.84-.84,0.77,0.77L40.56,42l0.4,0.4A2.94,2.94,0,0,1,43,41.57a2.89,2.89,0,0,1,1.73.54l0.35,0.3,2.18-2.16H45.67V39.32ZM41.73,45.9a1.87,1.87,0,1,0-.55-1.32A1.81,1.81,0,0,0,41.73,45.9Z" transform="translate(-16.05 -39.32)"/><path class="cls-1" d="M52.8,42.7Q49,42.7,49,41.2t3.75-1.5q3.75,0,3.75,1.5T52.8,42.7Zm0,0.38a7.41,7.41,0,0,0,2.65-.42,1.34,1.34,0,0,0,1.1-1.08v0.19a4,4,0,0,1,0,.42,0.53,0.53,0,0,1-.14.33v2.25a1.1,1.1,0,0,1-.68.89,4.89,4.89,0,0,1-1.78.54,1,1,0,0,0-.4-0.61,1.09,1.09,0,0,0-1.41,0,1,1,0,0,0-.4.61,4.89,4.89,0,0,1-1.78-.54,1.1,1.1,0,0,1-.68-0.89V42.51A1.48,1.48,0,0,1,49,41.57a1.34,1.34,0,0,0,1.1,1.08A7.3,7.3,0,0,0,52.8,43.07Zm3.56,5.44v0.56l0.19,0.38a0.75,0.75,0,0,1-.19.47,2.77,2.77,0,0,1-1.36.75,8.77,8.77,0,0,1-4.41,0,2.77,2.77,0,0,1-1.36-.75A0.75,0.75,0,0,1,49,49.45l0.19-.37V48.51a1.3,1.3,0,0,0,1,1.08,7.95,7.95,0,0,0,5.11,0A1.3,1.3,0,0,0,56.36,48.51Zm-1,.7a7.95,7.95,0,0,1-5.11,0,1.3,1.3,0,0,1-1-1.08v-3a0.84,0.84,0,0,0,.3.63,3,3,0,0,0,.87.49,5.37,5.37,0,0,0,1.27.3,1.14,1.14,0,0,0,.38.73,1.14,1.14,0,0,0,1.5,0,1.14,1.14,0,0,0,.38-0.73A4.86,4.86,0,0,0,55.68,46a1.1,1.1,0,0,0,.68-0.89v3A1.3,1.3,0,0,1,55.35,49.21Z" transform="translate(-16.05 -39.32)"/><path class="cls-1" d="M62.95,42.25a8.1,8.1,0,0,1-5.3,0,1.38,1.38,0,0,1-1.1-1.05,1.38,1.38,0,0,1,1.1-1.05,8.1,8.1,0,0,1,5.3,0A1.38,1.38,0,0,1,64,41.2,1.38,1.38,0,0,1,62.95,42.25Zm-5.29.38a7.15,7.15,0,0,0,2.66.45,6.88,6.88,0,0,0,2.63-.45A1.42,1.42,0,0,0,64,41.57a1.42,1.42,0,0,1-.19.94v5.63a1.32,1.32,0,0,1-1,1.07,7.67,7.67,0,0,1-5.09,0,1.32,1.32,0,0,1-1-1.07V42.51a0.5,0.5,0,0,1-.14-0.3,2.27,2.27,0,0,1,0-.45V41.57A1.38,1.38,0,0,0,57.66,42.63Zm6.2,6.45L64,49.45a0.75,0.75,0,0,1-.19.47,2.62,2.62,0,0,1-1.35.75,8.86,8.86,0,0,1-4.43,0,2.62,2.62,0,0,1-1.35-.75,0.75,0.75,0,0,1-.19-0.47l0.19-.37V48.7a1.31,1.31,0,0,0,1,1.07,7.74,7.74,0,0,0,5.11,0,1.31,1.31,0,0,0,1-1.07v0.38ZM62.4,40.39a7.66,7.66,0,0,0-4.2,0,1,1,0,0,0-.86.71,1,1,0,0,0,.86.71,7.66,7.66,0,0,0,4.2,0,1,1,0,0,0,.86-0.71A1,1,0,0,0,62.4,40.39Zm0.71,5.12V43.38a8.1,8.1,0,0,1-2.79.45,8.5,8.5,0,0,1-2.84-.45v2.13A4.85,4.85,0,0,0,59.2,46h0.07a1.12,1.12,0,0,1,2.06,0H61.4A4.85,4.85,0,0,0,63.11,45.51Zm0,2.63V46.26a4.81,4.81,0,0,1-1.69.49h0a1.24,1.24,0,0,1-.41.59,1.07,1.07,0,0,1-1.34,0,1.24,1.24,0,0,1-.41-0.59h0a4.81,4.81,0,0,1-1.69-.49v1.88a1.41,1.41,0,0,0,.7.42,6,6,0,0,0,2.11.33,6.06,6.06,0,0,0,2.13-.33A1,1,0,0,0,63.11,48.13Z" transform="translate(-16.05 -39.32)"/><path class="cls-1" d="M73,40.07l-2.62,4.88h1.13v1.13H69.84l-0.35.73v0.4h2.06v1.13H69.49v2.25H67.61V48.32H65.55V47.2h2.06V46.8l-0.33-.73H65.55V44.95h1.13L64,40.07h1.88l2.63,5.18,2.63-5.18H73Z" transform="translate(-16.05 -39.32)"/><path class="cls-1" d="M82,40.07l-2.62,4.88h1.13v1.13H78.84l-0.35.73v0.4h2.06v1.13H78.49v2.25H76.61V48.32H74.55V47.2h2.06V46.8l-0.33-.73H74.55V44.95h1.13L73,40.07h1.88l2.63,5.18,2.63-5.18H82Zm-1.87,5.25H78.79l0.3-.56,2.32-4.31h-1l-2.86,5.63-2.86-5.62h-1L76,44.76l0.3,0.56H74.92V45.7h1.59l0.47,1v0.84H74.92v0.38H77V50.2h1.13V47.95h2.06V47.57H78.11V46.7l0.49-1h1.57V45.32Z" transform="translate(-16.05 -39.32)"/><path class="cls-1" d="M83.75,41.56a5.21,5.21,0,0,1,7.29,0,5.09,5.09,0,0,1,0,7.24,5,5,0,0,1-3.64,1.49,5.24,5.24,0,0,1-2.48-.63L82,50.57,83,47.83a5,5,0,0,1-.75-2.65A4.89,4.89,0,0,1,83.75,41.56Zm6.2,5.57a1,1,0,0,0,.12-0.61,0.77,0.77,0,0,0-.26-0.16l-0.42-.23-0.45-.23a0.25,0.25,0,0,0-.3.07l-0.22.25-0.22.25a0.21,0.21,0,0,1-.28,0,4.27,4.27,0,0,1-1-.7,3.34,3.34,0,0,1-.7-0.91,0.23,0.23,0,0,1,.07-0.28l0.21-.21a0.82,0.82,0,0,0,.14-0.21,0.3,0.3,0,0,0,0-.23,1.27,1.27,0,0,0-.08-0.21q-0.08-.19-0.16-0.42l-0.13-.35a0.32,0.32,0,0,0-.3-0.26H85.68a0.49,0.49,0,0,0-.35.16,1.6,1.6,0,0,0-.52,1.08,2.12,2.12,0,0,0,.49,1.36l0.07,0.09,0.16,0.26L85.78,46a3.52,3.52,0,0,0,.33.38l0.39,0.38a2.82,2.82,0,0,0,.47.35,5,5,0,0,0,.53.28,5.67,5.67,0,0,0,1.2.4,0.44,0.44,0,0,0,.38,0,1.4,1.4,0,0,0,.52-0.2A0.77,0.77,0,0,0,89.95,47.13Z" transform="translate(-16.05 -39.32)"/><path class="cls-1" d="M94.25,41.56a5.21,5.21,0,0,1,7.29,0,5.09,5.09,0,0,1,0,7.24,5,5,0,0,1-3.64,1.49,5.24,5.24,0,0,1-2.48-.63l-2.86.91,0.94-2.74a5,5,0,0,1-.75-2.65A4.89,4.89,0,0,1,94.25,41.56Zm3.64-.74a4.35,4.35,0,0,0-3.12,1.29,4.31,4.31,0,0,0-.66,5.32l0.19,0.3-0.12.33L93.74,49.4,95.17,49l0.3-.09L95.76,49a4.46,4.46,0,0,0,2.13.54A4.34,4.34,0,0,0,101,48.27a4.33,4.33,0,0,0,0-6.16A4.35,4.35,0,0,0,97.89,40.82Zm-1.17,2.11,0.13,0.35q0.08,0.23.16,0.42a1.27,1.27,0,0,1,.08.21,0.3,0.3,0,0,1,0,.23,0.82,0.82,0,0,1-.14.21l-0.21.21a0.23,0.23,0,0,0-.07.28,3.34,3.34,0,0,0,.7.91,4.27,4.27,0,0,0,1,.7,0.21,0.21,0,0,0,.28,0l0.22-.25L99.14,46a0.25,0.25,0,0,1,.3-0.07l0.45,0.23,0.42,0.23a0.77,0.77,0,0,1,.26.16,1,1,0,0,1-.12.61,0.77,0.77,0,0,1-.37.39,1.4,1.4,0,0,1-.52.2,0.44,0.44,0,0,1-.37,0,5.67,5.67,0,0,1-1.2-.4,5,5,0,0,1-.53-0.28A2.82,2.82,0,0,1,97,46.7l-0.39-.37A3.52,3.52,0,0,1,96.28,46L96,45.63l-0.16-.26-0.07-.09a2.12,2.12,0,0,1-.49-1.36,1.6,1.6,0,0,1,.52-1.08,0.49,0.49,0,0,1,.35-0.16h0.23A0.32,0.32,0,0,1,96.72,42.93Z" transform="translate(-16.05 -39.32)"/><path class="cls-1" d="M103.8,40.07h9v6.38l-2.62,2.63H108.3l-1.5,1.5h-1.5v-1.5H103V41.95Zm4.13,5.63v-3H106.8v3h1.13Zm2.62,0v-3h-1.12v3h1.13Z" transform="translate(-16.05 -39.32)"/><path class="cls-1" d="M113.55,40.07h9v6.38l-2.62,2.63H118l-1.5,1.5H115v-1.5H112.8V41.95Zm7.88,6V41.2H114.3v6.38h1.88v1.5l1.5-1.5h2.25Zm-4.87-.37v-3h1.13v3h-1.12Zm2.63,0v-3h1.13v3h-1.12Z" transform="translate(-16.05 -39.32)"/><path class="cls-1" d="M133.8,47.76a0.94,0.94,0,0,1-.14.49,1.31,1.31,0,0,1-.89.56l-0.13,0-0.13,0-0.09,0a0.4,0.4,0,0,1-.16,0v0a1.39,1.39,0,0,1-.09.42,0.5,0.5,0,0,1-.52.28,0.71,0.71,0,0,1-.21,0h-0.12a4,4,0,0,0-.54,0,1.25,1.25,0,0,0-.61.14l-0.33.23a2.5,2.5,0,0,1-3.33,0l-0.16-.12-0.16-.12a1.2,1.2,0,0,0-.59-0.14,4.07,4.07,0,0,0-.56,0h-0.12a0.71,0.71,0,0,1-.21,0,0.5,0.5,0,0,1-.52-0.28A1.39,1.39,0,0,1,124.1,49v0a0.33,0.33,0,0,1-.14,0l-0.09,0-0.14,0-0.14,0a1.31,1.31,0,0,1-.89-0.56,0.9,0.9,0,0,1-.14-0.47V47.43l0.35,0a1.92,1.92,0,0,0,1.27-.4,2.19,2.19,0,0,0,.84-1.22,0.19,0.19,0,0,0-.09-0.12,2.41,2.41,0,0,0-.47-0.19l-0.16-.06-0.16-.06a0.61,0.61,0,0,1-.4-0.68,0.71,0.71,0,0,1,.7-0.63,0.65,0.65,0,0,1,.28,0l0.4,0.12q0-.3-0.07-0.7a2.9,2.9,0,0,1,.68-2.39,3.4,3.4,0,0,1,4.92,0,2.87,2.87,0,0,1,.68,2.37q0,0.52-.07.73a2.23,2.23,0,0,0,.42-0.12,1.28,1.28,0,0,1,.28,0,0.71,0.71,0,0,1,.7.63,0.63,0.63,0,0,1-.42.68l-0.16.06-0.16.06a1.66,1.66,0,0,0-.45.19,0.35,0.35,0,0,0-.12.12,2.17,2.17,0,0,0,2.11,1.62l0.35,0v0.33Zm-6.48-5.27a0.3,0.3,0,0,0-.54,0,0.81,0.81,0,0,0,0,.8,0.3,0.3,0,0,0,.54,0A0.81,0.81,0,0,0,127.32,42.49Zm2.17,1.66a0.2,0.2,0,0,0-.28-0.28,1.42,1.42,0,0,1-2.06,0,0.2,0.2,0,0,0-.28.28A1.87,1.87,0,0,0,129.49,44.15ZM129,43.28a0.3,0.3,0,0,0,.54,0,0.81,0.81,0,0,0,0-.8,0.3,0.3,0,0,0-.54,0A0.81,0.81,0,0,0,129,43.28Z" transform="translate(-16.05 -39.32)"/><path class="cls-1" d="M139.42,40.07a3.09,3.09,0,0,1,2.46,1.05,2.87,2.87,0,0,1,.68,2.37q0,0.52-.07.73a2.23,2.23,0,0,0,.42-0.12,1.28,1.28,0,0,1,.28,0,0.71,0.71,0,0,1,.7.63,0.63,0.63,0,0,1-.42.68l-0.16.06-0.16.06a1.66,1.66,0,0,0-.45.19,0.35,0.35,0,0,0-.12.12,2.17,2.17,0,0,0,2.11,1.62l0.35,0v0.33a0.94,0.94,0,0,1-.14.49,1.31,1.31,0,0,1-.89.56l-0.13,0-0.13,0-0.09,0a0.4,0.4,0,0,1-.16,0v0a1.39,1.39,0,0,1-.09.42,0.5,0.5,0,0,1-.52.28,0.71,0.71,0,0,1-.21,0h-0.12a4,4,0,0,0-.54,0,1.25,1.25,0,0,0-.61.14l-0.33.23a2.5,2.5,0,0,1-3.33,0l-0.16-.12-0.16-.12a1.2,1.2,0,0,0-.59-0.14,4.07,4.07,0,0,0-.56,0h-0.12a0.71,0.71,0,0,1-.21,0,0.5,0.5,0,0,1-.52-0.28,1.39,1.39,0,0,1-.09-0.42v0a0.33,0.33,0,0,1-.14,0l-0.09,0-0.14,0-0.14,0a1.31,1.31,0,0,1-.89-0.56,0.9,0.9,0,0,1-.14-0.47V47.43l0.35,0a1.92,1.92,0,0,0,1.27-.4,2.19,2.19,0,0,0,.84-1.22,0.19,0.19,0,0,0-.09-0.12,2.41,2.41,0,0,0-.47-0.19l-0.16-.06-0.16-.06a0.61,0.61,0,0,1-.4-0.68,0.71,0.71,0,0,1,.7-0.63,0.65,0.65,0,0,1,.28,0l0.4,0.12q0-.3-0.07-0.7a2.9,2.9,0,0,1,.68-2.39A3.09,3.09,0,0,1,139.42,40.07Zm0,0.38a2.77,2.77,0,0,0-2.11.87,2.48,2.48,0,0,0-.66,2.13q0,0.23.09,1.05a0.27,0.27,0,0,1-.28.12,2,2,0,0,1-.66-0.16,0.33,0.33,0,0,0-.14,0,0.3,0.3,0,0,0-.33.28,0.32,0.32,0,0,0,.19.3l0.4,0.13a1.44,1.44,0,0,1,.53.26,0.49,0.49,0,0,1,.18.39,2.47,2.47,0,0,1-1,1.5,1.36,1.36,0,0,1-.56.3,5,5,0,0,1-.66.16l-0.28,0a0.64,0.64,0,0,0,0,.14,0.71,0.71,0,0,0,.21.27,1.24,1.24,0,0,0,.52.27l0.47,0.12a0.36,0.36,0,0,1,.3.14v0a0.72,0.72,0,0,0,.16.49,0.14,0.14,0,0,0,.09,0h0.14q0.56-.07.75-0.07a1.44,1.44,0,0,1,.8.21,3.31,3.31,0,0,1,.38.26,3.18,3.18,0,0,0,.42.28,3.44,3.44,0,0,0,.42.16,1.73,1.73,0,0,0,1.13,0,3.44,3.44,0,0,0,.42-0.16,3.18,3.18,0,0,0,.42-0.28,3.31,3.31,0,0,1,.38-0.26,1.49,1.49,0,0,1,.82-0.21q0.16,0,.73.07h0.14a0.26,0.26,0,0,0,.23-0.28V48.91l0-.14a0.09,0.09,0,0,1,0-.06,0,0,0,0,0,0,0,0,0,0,0,1,0,0l0.06,0,0.09,0,0.13,0,0.19,0,0.25-.06a1.33,1.33,0,0,0,.52-0.26,0.57,0.57,0,0,0,.21-0.3l0-.12a2.52,2.52,0,0,1-1.5-.49,2.47,2.47,0,0,1-1-1.5,0.49,0.49,0,0,1,.18-0.39,1.44,1.44,0,0,1,.53-0.26l0.4-.13a0.35,0.35,0,0,0,.21-0.3,0.3,0.3,0,0,0-.33-0.28,0.4,0.4,0,0,0-.16,0,1.87,1.87,0,0,1-.63.14l-0.3-.09q0.07-.82.09-1.05a2.48,2.48,0,0,0-.66-2.13A2.77,2.77,0,0,0,139.42,40.45Zm-1.12,3q-0.37,0-.37-0.56t0.38-.56q0.38,0,.38.56T138.3,43.45Zm1.13,1.24a1.79,1.79,0,0,1-1.31-.54,0.2,0.2,0,0,1,.28-0.28,1.42,1.42,0,0,0,2.06,0,0.2,0.2,0,0,1,.28.28A1.79,1.79,0,0,1,139.42,44.69Zm1.13-1.24q-0.37,0-.37-0.56t0.38-.56q0.38,0,.38.56T140.55,43.45Z" transform="translate(-16.05 -39.32)"/><path class="cls-1" d="M157,47v0.19a0.7,0.7,0,0,1-.35.52,0.28,0.28,0,0,1-.3.07s0-.05.09-0.12a0.52,0.52,0,0,0,.23-0.77,1,1,0,0,0-.61-0.47,2.82,2.82,0,0,0-1.69,0,0.86,0.86,0,0,1,0,.8,1.62,1.62,0,0,1-.91.52,0.24,0.24,0,0,1-.35-0.21,1.43,1.43,0,0,1,.7-1.1,2.4,2.4,0,0,1-.33-0.87,1.72,1.72,0,0,0-.61,1.43,0.75,0.75,0,0,1-.33.84,1.44,1.44,0,0,1-1.08.26,0.14,0.14,0,0,1-.12-0.19,0.72,0.72,0,0,1,.16-0.32,5.16,5.16,0,0,1,.38-0.41l0.28-.28a0.13,0.13,0,0,0,0-.16,4.32,4.32,0,0,1-.33-0.84l-0.23.56q-0.21.49-.33,0.71a6,6,0,0,1-.34.55,1.71,1.71,0,0,1-.43.47,0.29,0.29,0,0,1-.49-0.12,1.79,1.79,0,0,1,0-.68,4.84,4.84,0,0,1-.47.89,0.4,0.4,0,0,1-.35.13,0.46,0.46,0,0,1-.35-0.15,1.74,1.74,0,0,1-.12-1.71l-0.68.35a1.75,1.75,0,0,1-.73,2.23,2.19,2.19,0,0,1-.6.26,1.52,1.52,0,0,1-.7,0,0.65,0.65,0,0,1-.5-0.37,1,1,0,0,1,.14-1,5.09,5.09,0,0,1,1.73-1.17q-0.16-.12-0.77-0.48a6.21,6.21,0,0,1-1-.68,2,2,0,0,1-.52-0.71q-0.4-.94,1-2.09a8,8,0,0,1,1.69-1,7.44,7.44,0,0,1,2-.6,3.39,3.39,0,0,1,2,.26,1.06,1.06,0,0,1,.73,1.22,2.26,2.26,0,0,1-.66,1.27,3.86,3.86,0,0,1-1.25.75,4.09,4.09,0,0,1-1.73.32,1.13,1.13,0,0,1-1.14-.71,0.05,0.05,0,0,1,0-.06,0,0,0,0,1,0,0l0.07,0,0.15,0.09,0.2,0.09,0.28,0.09a1.11,1.11,0,0,0,.3,0,3.74,3.74,0,0,0,1.22-.19,2.56,2.56,0,0,0,1.88-1.57,0.6,0.6,0,0,0-.35-0.8q-1.29-.63-3.73.61-2,1-1.92,2a1,1,0,0,0,.32.73,5.37,5.37,0,0,0,.88.7q0.56,0.38.7,0.49l0.39-.15a5,5,0,0,0,.53-0.25,1,1,0,0,0,.3-0.23,1.46,1.46,0,0,1,1-.61,0.34,0.34,0,0,1,.38.23,1,1,0,0,1,0,.45,0.22,0.22,0,0,1,.35,0,0.86,0.86,0,0,1-.12.76,0.91,0.91,0,0,0-.12.79,2.63,2.63,0,0,0,.43-0.77q0.25-.59.27-0.61s0.06-.16.14-0.37a5.3,5.3,0,0,1,.25-0.59,0.52,0.52,0,0,1,.22-0.28,0.74,0.74,0,0,1,.59,0q0.09,0,0,.12a1.45,1.45,0,0,0,.07,1.22,4.45,4.45,0,0,0,.8-1.57,0.25,0.25,0,0,1,.12-0.09,0.93,0.93,0,0,1,.59,0,0.08,0.08,0,0,1,0,.12,1.59,1.59,0,0,0,.14,1.36,2.42,2.42,0,0,1,2.27.12A1.06,1.06,0,0,1,157,47Zm-9.35.59a1.23,1.23,0,0,0-.07-0.47,3,3,0,0,0-1,.6,1.1,1.1,0,0,0-.48.86,0.3,0.3,0,0,0,.4.28,1.35,1.35,0,0,0,.63-0.3A1.25,1.25,0,0,0,147.7,47.62Zm2.41-1.69a0.06,0.06,0,0,0,0-.08,0.08,0.08,0,0,0-.09,0,1.14,1.14,0,0,0-.73.8,1.51,1.51,0,0,0,0,1.1q0,0.12.14,0A3.47,3.47,0,0,0,150.11,45.93Zm1.64,1.92a0.45,0.45,0,0,0,.39-0.2,0.57,0.57,0,0,0,.22-0.43l-0.3.3A4.42,4.42,0,0,0,151.75,47.85Zm1.9-.42a0.52,0.52,0,0,0,.28-0.7,0.92,0.92,0,0,0-.47.73,0.09,0.09,0,0,0,.08,0Z" transform="translate(-16.05 -39.32)"/><path class="cls-1" d="M160.07,45.16a1.41,1.41,0,0,0-.82.47,1.28,1.28,0,0,0-.33.87v1.08h-0.35a1.19,1.19,0,0,1-.91-0.46,2.46,2.46,0,0,1-.54-1.16,2.81,2.81,0,0,1-.07-0.63v0a2.72,2.72,0,0,1,.45-1.58,1.29,1.29,0,0,1,1.08-.64h3V42.7H159.3V42a1.11,1.11,0,0,1,.21-0.74,1.5,1.5,0,0,1,.87-0.36,7.07,7.07,0,0,1,1.05-.09,7.14,7.14,0,0,1,1.29.09,1.38,1.38,0,0,1,.76.38,1,1,0,0,1,.32.73v2.06a1,1,0,0,1-.77,1,1.32,1.32,0,0,1-.3,0h-2.37A1.25,1.25,0,0,0,160.07,45.16Zm5.88-.61a2.68,2.68,0,0,1,.09.77,3.47,3.47,0,0,1-.16,1,1.51,1.51,0,0,1-1.36,1.24h-3v0.38h2.25v0.61a1.22,1.22,0,0,1-1.08,1.1,4,4,0,0,1-2.27,0,1.25,1.25,0,0,1-1.15-1.1v-2a0.93,0.93,0,0,1,.77-1,1.32,1.32,0,0,1,.3,0H163a1.26,1.26,0,0,0,.82-0.47,1.5,1.5,0,0,0,.33-1v-1h0.35a1.18,1.18,0,0,1,.88.41A2.35,2.35,0,0,1,166,44.55Zm-5.62-2.25a0.35,0.35,0,0,0,.4-0.4,0.36,0.36,0,0,0-.4-0.42,0.4,0.4,0,0,0-.42.42A0.36,0.36,0,0,0,160.33,42.3Zm2.44,6a0.36,0.36,0,0,0-.42.4,0.4,0.4,0,0,0,.42.42,0.36,0.36,0,0,0,.4-0.42A0.35,0.35,0,0,0,162.77,48.3Z" transform="translate(-16.05 -39.32)"/><path class="cls-1" d="M175.75,43.35a3.25,3.25,0,0,1,.8,2.25,6.36,6.36,0,0,1-.14,1.52,4.29,4.29,0,0,1-.49,1.1,3.41,3.41,0,0,1-.75.75,4,4,0,0,1-.8.49,3.13,3.13,0,0,1-.84.23q-0.61.09-.73,0.09l-1.5,0-1.5,0q-0.12,0-.73-0.09a3.13,3.13,0,0,1-.84-0.23,3.56,3.56,0,0,1-.8-0.49,3.41,3.41,0,0,1-.75-0.75,4.29,4.29,0,0,1-.49-1.1A6.36,6.36,0,0,1,166,45.6a3.19,3.19,0,0,1,.8-2.25,4.38,4.38,0,0,1,0-.91,5,5,0,0,1,.38-1.62,6,6,0,0,1,2.63,1.2,5.81,5.81,0,0,1,1.45-.14,5.64,5.64,0,0,1,1.45.14,9,9,0,0,1,1.36-.77,6.52,6.52,0,0,1,1-.35l0.3-.07a5,5,0,0,1,.38,1.62v0.91Zm-1.55,5.48a1.89,1.89,0,0,0,1-1.9,1.76,1.76,0,0,0-.61-1.38,1.3,1.3,0,0,0-.75-0.35,7.67,7.67,0,0,0-1.31,0l-1.22.09-0.5,0-0.48,0-0.49,0-0.42,0a3.4,3.4,0,0,0-.73,0,1.43,1.43,0,0,0-.66.33,1.75,1.75,0,0,0-.59,1.38,1.87,1.87,0,0,0,1,1.9,7.1,7.1,0,0,0,2.88.42h0A7.31,7.31,0,0,0,174.21,48.84ZM169.47,46a0.62,0.62,0,0,1,.52.3,1.33,1.33,0,0,1,.23.75,1.29,1.29,0,0,1-.23.73,0.62,0.62,0,0,1-.52.3,0.63,0.63,0,0,1-.54-0.3,1.24,1.24,0,0,1-.21-0.73,1.22,1.22,0,0,1,.21-0.75A0.63,0.63,0,0,1,169.47,46Zm3.68,0a0.62,0.62,0,0,1,.52.3,1.36,1.36,0,0,1,.21.75,1.24,1.24,0,0,1-.21.73,0.62,0.62,0,0,1-.52.3,0.65,0.65,0,0,1-.56-0.3,1.32,1.32,0,0,1-.21-0.73,1.22,1.22,0,0,1,.21-0.75A0.65,0.65,0,0,1,173.15,46Z" transform="translate(-16.05 -39.32)"/><path class="cls-1" d="M181,50.57a0.74,0.74,0,0,1-.4-0.12l-1.24-.75q-0.19-.12,0-0.16a2.91,2.91,0,0,0,.59-0.28,0.06,0.06,0,0,1,.09,0L181,49.8l0.06,0,0.06,0,3.66-2.16a0.14,0.14,0,0,0,0-.09V43.17a0.12,0.12,0,0,0,0-.12l-3.66-2.2a0.06,0.06,0,0,0-.09,0L177.37,43a0.11,0.11,0,0,0-.07.12v4.38a0.09,0.09,0,0,0,0,.09l0.94,0.56a0.75,0.75,0,0,0,.66.06,0.43,0.43,0,0,0,.23-0.41V43.56a0.1,0.1,0,0,1,.12-0.12h0.52a0.1,0.1,0,0,1,.12.12v4.29a1.25,1.25,0,0,1-.3.9,1.12,1.12,0,0,1-.84.32,2,2,0,0,1-.87-0.26l-1-.56a0.76,0.76,0,0,1-.4-0.7V43.09a0.76,0.76,0,0,1,.4-0.7l3.7-2.23a0.74,0.74,0,0,1,.8,0l3.7,2.23a0.76,0.76,0,0,1,.4.7v4.45a0.76,0.76,0,0,1-.4.7l-3.7,2.2A0.74,0.74,0,0,1,181,50.57Zm-0.36-3.4a1.25,1.25,0,0,1-.46-1,0.09,0.09,0,0,1,.09-0.12h0.49a0.09,0.09,0,0,1,.12.09,0.7,0.7,0,0,0,.33.56,2,2,0,0,0,.94.16q1.1,0,1.1-.68a0.38,0.38,0,0,0-.22-0.35,3.54,3.54,0,0,0-1.07-.19,2.78,2.78,0,0,1-1.24-.34,0.94,0.94,0,0,1-.42-0.86,1,1,0,0,1,.46-0.9,2.17,2.17,0,0,1,1.25-.32q1.76,0,1.85,1.2a0.22,0.22,0,0,1-.12.12h-0.47a0.09,0.09,0,0,1-.12-0.09,1,1,0,0,0-1.15-.54q-1,0-1,.52a0.34,0.34,0,0,0,.22.32,4.65,4.65,0,0,0,1,.22,3.7,3.7,0,0,1,1.31.38,0.89,0.89,0,0,1,.38.82,1.2,1.2,0,0,1-.49,1,2.2,2.2,0,0,1-1.36.38A2.29,2.29,0,0,1,180.69,47.17Z" transform="translate(-16.05 -39.32)"/><path class="cls-1" d="M195.3,41.57a0.72,0.72,0,0,1,.75.75v6a0.72,0.72,0,0,1-.75.75h-9a0.72,0.72,0,0,1-.75-0.75v-6a0.72,0.72,0,0,1,.75-0.75h9Zm-3.84,6v-4.5h-1.31l-1,1.59-1-1.59h-1.31v4.5h1.31V45.32l1,1.27,1-1.27v2.25h1.31Zm2,0,1.64-2.25h-1V43.07h-1.31v2.25h-1Z" transform="translate(-16.05 -39.32)"/><path class="cls-1" d="M20.17,55.78v5q0,3.07-2.84,3.07A4.07,4.07,0,0,1,16,63.66l0.19-1.45a2.5,2.5,0,0,0,.91.14A1,1,0,0,0,18,62a2,2,0,0,0,.28-1.24v-5h1.88Zm4.08-.19a4.87,4.87,0,0,1,2,.38l-0.45,1.5a3.3,3.3,0,0,0-1.57-.4,1.35,1.35,0,0,0-.83.22,0.67,0.67,0,0,0-.29.55,0.68,0.68,0,0,0,.3.57,5.64,5.64,0,0,0,1.15.55,2.55,2.55,0,0,1,2,2.39,2.27,2.27,0,0,1-.8,1.78,3.4,3.4,0,0,1-2.32.7,4.18,4.18,0,0,1-2.13-.49l0.35-1.48a3.87,3.87,0,0,0,1.9.49q1.22,0,1.22-.89a0.74,0.74,0,0,0-.29-0.61,3.75,3.75,0,0,0-1-.49Q21.3,59.58,21.3,58a2.14,2.14,0,0,1,.81-1.71A3.22,3.22,0,0,1,24.25,55.6Z" transform="translate(-16.05 -39.32)"/><path class="cls-1" d="M30.67,55.78v5q0,3.07-2.84,3.07a4.07,4.07,0,0,1-1.29-.19l0.19-1.45a2.5,2.5,0,0,0,.91.14A1,1,0,0,0,28.52,62a2,2,0,0,0,.28-1.24v-5h1.88Zm-0.37.38H29.17v4.59a2.42,2.42,0,0,1-.4,1.5,1.4,1.4,0,0,1-1.12.47,4.19,4.19,0,0,1-.59,0l-0.09.7a5,5,0,0,0,.87.09,2.42,2.42,0,0,0,1.78-.59,2.78,2.78,0,0,0,.68-2.11V56.16Zm4.45-.56a4.87,4.87,0,0,1,2,.38l-0.45,1.5a3.3,3.3,0,0,0-1.57-.4,1.35,1.35,0,0,0-.83.22,0.67,0.67,0,0,0-.29.55,0.68,0.68,0,0,0,.3.57,5.64,5.64,0,0,0,1.15.55,2.55,2.55,0,0,1,2,2.39,2.27,2.27,0,0,1-.8,1.78,3.4,3.4,0,0,1-2.32.7,4.18,4.18,0,0,1-2.13-.49l0.35-1.48a3.87,3.87,0,0,0,1.9.49q1.22,0,1.22-.89A0.74,0.74,0,0,0,35,60.87a3.75,3.75,0,0,0-1-.49Q31.8,59.58,31.8,58a2.14,2.14,0,0,1,.81-1.71A3.22,3.22,0,0,1,34.75,55.6Zm0,0.38a2.89,2.89,0,0,0-1.92.61A1.69,1.69,0,0,0,32.17,58a1.73,1.73,0,0,0,.49,1.2A4,4,0,0,0,34.1,60a3.35,3.35,0,0,1,1.13.56,1.2,1.2,0,0,1,.42.89,1.08,1.08,0,0,1-.47.94,1.85,1.85,0,0,1-1.12.33,4.63,4.63,0,0,1-1.64-.35l-0.16.75a4.06,4.06,0,0,0,1.69.33A3.07,3.07,0,0,0,36,62.84a1.88,1.88,0,0,0,.63-1.48,1.75,1.75,0,0,0-.4-1.17,3.06,3.06,0,0,0-1.36-.87L34,59a1.7,1.7,0,0,1-.55-0.43A1,1,0,0,1,33.67,57a1.63,1.63,0,0,1,1.05-.3,3.39,3.39,0,0,1,1.34.26l0.23-.75A5.16,5.16,0,0,0,34.75,56Z" transform="translate(-16.05 -39.32)"/><path class="cls-1" d="M37,54.47h9l-0.82,9.45L41.55,65l-3.68-1.05Zm7.22,3.09,0.09-1.17H38.71L39,59.91h3.91l-0.14,1.5-1.24.35-1.27-.35-0.07-.91H39.09l0.14,1.83L41.55,63l2.3-.66,0.33-3.54H40L40,57.56h4.31Z" transform="translate(-16.05 -39.32)"/><path class="cls-1" d="M46,54.47h9l-0.82,9.45L50.55,65l-3.68-1.05Zm7.48,8.88,0.7-8.13H46.87l0.7,8.13,3,0.84ZM48,59.91l-0.3-3.52h5.65l-0.09,1.17H49L49,58.76h4.13L52.85,62.3l-2.3.66-2.32-.66-0.14-1.8h1.13l0.07,0.91,1.27,0.35,1.24-.35,0.14-1.5H48Z" transform="translate(-16.05 -39.32)"/><path class="cls-1" d="M58.28,60.1h2.91L61,61.22H58.28v0.3a1.45,1.45,0,0,0,.39,1.14,2.29,2.29,0,0,0,1.46.34,14.21,14.21,0,0,0,2.18-.21l0.23,1.52a10.81,10.81,0,0,1-2.48.28q-3.84,0-3.84-2.74V61.22H55V60.1h1.17V59H55V57.85h1.17V57.59q0-2.74,3.84-2.74a10.81,10.81,0,0,1,2.48.28l-0.23,1.52a14.21,14.21,0,0,0-2.18-.21,2.3,2.3,0,0,0-1.45.34,1.27,1.27,0,0,0-.4,1v0h3.23L61.35,59H58.28V60.1Z" transform="translate(-16.05 -39.32)"/><path class="cls-1" d="M67.56,54.85a10.81,10.81,0,0,1,2.48.28l-0.21,1.52a14,14,0,0,0-2.2-.21,2.3,2.3,0,0,0-1.45.34,1.27,1.27,0,0,0-.4,1v0.07H69L68.85,59H65.78v1.13h2.91l-0.16,1.13H65.78v0.28a1.45,1.45,0,0,0,.39,1.14,2.29,2.29,0,0,0,1.46.34,14,14,0,0,0,2.2-.21L70,64.31a10.81,10.81,0,0,1-2.48.28q-3.84,0-3.84-2.74V61.24H62.55V60.12h1.17V59H62.55V57.87h1.17V57.59Q63.72,54.85,67.56,54.85Zm0,0.38a4.54,4.54,0,0,0-2.7.63,2,2,0,0,0-.77,1.73v0.66H62.92v0.38H64.1v1.88H62.92v0.38H64.1v1a2,2,0,0,0,.77,1.73,4.54,4.54,0,0,0,2.7.63A10.31,10.31,0,0,0,69.63,64l-0.12-.82a15.63,15.63,0,0,1-1.87.16,2.66,2.66,0,0,1-1.73-.45,1.76,1.76,0,0,1-.49-1.41V60.87H68.2l0.07-.37H65.41V58.62h3.14l0-.37H65.41V57.8a1.61,1.61,0,0,1,.49-1.29,2.72,2.72,0,0,1,1.73-.45,14.67,14.67,0,0,1,1.88.16l0.12-.82A10.31,10.31,0,0,0,67.56,55.22Z" transform="translate(-16.05 -39.32)"/><path class="cls-1" d="M70,54.47h9l-0.82,9.45L74.55,65l-3.68-1.05Zm6.82,7.85,0.52-5.91H71.74l0.09,1.15h4.31L76,58.76H73.21l0.09,1.17h2.63l-0.12,1.5-1.27.35-1.24-.35-0.09-.94H72.09l0.16,1.83L74.55,63Z" transform="translate(-16.05 -39.32)"/><path class="cls-1" d="M79,54.47h9l-0.82,9.45L83.55,65l-3.68-1.05Zm7.48,8.88,0.7-8.13H79.87l0.7,8.13,3,0.84Zm-0.66-1L83.55,63l-2.3-.66-0.16-1.83h1.13l0.09,0.94,1.24,0.35,1.27-.35,0.12-1.5H82.31l-0.09-1.17H85l0.09-1.2H80.83l-0.09-1.15h5.65Z" transform="translate(-16.05 -39.32)"/><path class="cls-1" d="M89.58,56A5.26,5.26,0,1,1,88,59.72,5.06,5.06,0,0,1,89.58,56Zm7,4.68v-1.9a0.3,0.3,0,0,0-.16-0.28l-1.44-1q-1-.66-1.46-1a0.32,0.32,0,0,0-.4,0q-0.49.3-1.44,0.94l-1.42,1a0.37,0.37,0,0,0-.19.33v1.88a0.35,0.35,0,0,0,.19.3l1.42,1,1.44,1a0.32,0.32,0,0,0,.4,0q0.49-.3,1.45-1l1.43-1A0.35,0.35,0,0,0,96.56,60.68Zm-6-1.41,0.7,0.47-0.7.47V59.28Zm1.27,0.09a0.06,0.06,0,0,1-.09,0l-0.94-.61L93,57.31v1.2a0.2,0.2,0,0,1-.07.14L92.41,59Zm1.08,1.48a0.22,0.22,0,0,1,.07.09v1.24l-2.18-1.45,0.91-.61a0.15,0.15,0,0,1,.12,0l0.55,0.36Zm0.4-1.73,0.94,0.63-0.91.61a0.22,0.22,0,0,1-.14,0l-0.91-.61,0.59-.4,0.16-.12a0.61,0.61,0,0,1,.16-0.09S93.31,59.08,93.35,59.11Zm0.28-.49a0.13,0.13,0,0,1,0-.07V57.28l2.18,1.48-0.94.61a0.06,0.06,0,0,1-.09,0L94.18,59Zm1.08,1.5a0.11,0.11,0,0,1,.16,0l0.89,0.61-2.18,1.45V61a0.2,0.2,0,0,1,.07-0.14l0.54-.36ZM96,60.21l-0.7-.47,0.7-.47v0.94Z" transform="translate(-16.05 -39.32)"/><path class="cls-1" d="M100.08,56a5.26,5.26,0,1,1-1.54,3.71A5.06,5.06,0,0,1,100.08,56Zm6.9,0.53a4.53,4.53,0,1,0,1.31,3.19A4.34,4.34,0,0,0,107,56.53Zm-0.09,2a0.3,0.3,0,0,1,.16.28v1.9a0.35,0.35,0,0,1-.19.3l-1.43,1q-1,.66-1.45,1a0.32,0.32,0,0,1-.4,0l-1.44-1-1.42-1a0.35,0.35,0,0,1-.19-0.3V58.81a0.37,0.37,0,0,1,.19-0.33l1.42-1q0.95-.63,1.44-0.94a0.32,0.32,0,0,1,.4,0q0.49,0.3,1.46,1Zm-5.79.77v0.94l0.7-.47Zm2.41-2-2.18,1.45,0.94,0.61a0.06,0.06,0,0,0,.09,0l0.54-.36,0.54-.36a0.2,0.2,0,0,0,.07-0.14v-1.2Zm0,4.88V60.94a0.22,0.22,0,0,0-.07-0.09l-0.53-.36-0.55-.36a0.15,0.15,0,0,0-.12,0l-0.91.61Zm0.35-1.83,0.91-.61-0.94-.63s-0.07,0-.12,0a0.61,0.61,0,0,0-.16.09l-0.16.12-0.59.4,0.91,0.61A0.22,0.22,0,0,0,103.87,60.35Zm0.21-3.07v1.27a0.13,0.13,0,0,0,0,.07L104.68,59l0.55,0.38a0.06,0.06,0,0,0,.09,0l0.94-.61Zm0,4.9,2.18-1.45-0.89-.61a0.11,0.11,0,0,0-.16,0l-0.52.36-0.54.36a0.2,0.2,0,0,0-.07.14v1.2Zm2.39-2V59.28l-0.7.47Z" transform="translate(-16.05 -39.32)"/><path class="cls-1" d="M114.3,61.81a2.15,2.15,0,0,0,.68-0.12l-1.83,3.16a5,5,0,0,1-2.53-1.38A5,5,0,0,1,109,59.72a5,5,0,0,1,.42-2.06,6.75,6.75,0,0,1,.61-1.05l2.41,4.17A2,2,0,0,0,114.3,61.81Zm-3.87-5.62v0a5.12,5.12,0,0,1,2.11-1.38,5.27,5.27,0,0,1,1.76-.3,5.06,5.06,0,0,1,2.36.56,5.4,5.4,0,0,1,1.84,1.55h0a6.21,6.21,0,0,1,.59,1,6.21,6.21,0,0,0-.59-1h0a5.94,5.94,0,0,1,.61,1h-4.8a2,2,0,0,0-1.32.48,2,2,0,0,0-.71,1.21Zm2.75,4.65a1.58,1.58,0,1,1,1.11.46A1.52,1.52,0,0,1,113.19,60.83Zm6.29-2a5.42,5.42,0,0,1,.07.89,5.22,5.22,0,0,1-4.08,5.11q-0.47.09-.7,0.12a3.54,3.54,0,0,1-.47,0,5.23,5.23,0,0,1-.59,0v0l2.39-4.15a2,2,0,0,0,.3-1.05,2.07,2.07,0,0,0-.75-1.57h3.66a6.27,6.27,0,0,1,.16.68,6.27,6.27,0,0,0-.16-0.68A6.27,6.27,0,0,1,119.48,58.83Z" transform="translate(-16.05 -39.32)"/><path class="cls-1" d="M121.1,56a5.21,5.21,0,1,1-1.55,3.7A5.05,5.05,0,0,1,121.1,56Zm-0.49,3.7a4.09,4.09,0,0,0,1,2.78,3.94,3.94,0,0,0,2.58,1.37l1.27-2.18a2.28,2.28,0,0,1-.68.14,2,2,0,0,1-1.8-1.05l-1.83-3.16A4,4,0,0,0,120.6,59.72Zm4.2-4.2a4,4,0,0,0-3.3,1.59l1.27,2.18a2,2,0,0,1,.71-1.21,2,2,0,0,1,1.32-.48h3.63a4,4,0,0,0-1.51-1.52A4.16,4.16,0,0,0,124.8,55.53Zm1.11,5.31a1.58,1.58,0,1,0-1.11.46A1.52,1.52,0,0,0,125.91,60.83Zm-1.11,3.08a4.2,4.2,0,0,0,4.2-4.2,3.91,3.91,0,0,0-.3-1.57h-2.53a2.07,2.07,0,0,1,.75,1.57,2,2,0,0,1-.3,1.05Z" transform="translate(-16.05 -39.32)"/><path class="cls-1" d="M135.3,54.47l5.25,1.88-1.08,6.38L135.3,65l-4.17-2.25L130,56.35Zm2.06,7.5h0.94l-3-6.56-3,6.56h0.94l0.63-1.31h2.86Zm-3-2.25,1-2.09,1,2.09h-2Z" transform="translate(-16.05 -39.32)"/><path class="cls-1" d="M145.8,54.47L151,56.35,150,62.72,145.8,65l-4.17-2.25-1.08-6.37Zm0,0.75-4.41,1.62,0.91,5.39,3.49,1.88,3.49-1.87,0.91-5.39ZM147.86,62l-0.63-1.31h-2.86L143.74,62H142.8l3-6.56,3,6.56h-0.94Zm-3-2.25h2l-1-2.09Z" transform="translate(-16.05 -39.32)"/><path class="cls-1" d="M152.58,56A5.26,5.26,0,1,1,151,59.72,5.06,5.06,0,0,1,152.58,56Zm3.71,8.21a4.48,4.48,0,1,0-3.19-1.31A4.34,4.34,0,0,0,156.3,64.22Zm-1.38-4.57a0.31,0.31,0,0,1,.09.52,0.42,0.42,0,0,1-.21.14,0.31,0.31,0,0,1-.35,0,0.52,0.52,0,0,0-.45-0.07,0.58,0.58,0,0,0-.3.35,0.43,0.43,0,0,1-.26.23,0.45,0.45,0,0,1-.23,0,0.31,0.31,0,0,1-.26-0.45,1.27,1.27,0,0,1,.8-0.87A1.32,1.32,0,0,1,154.92,59.65Zm3.56,2.48a0.33,0.33,0,0,1-.09.52,0.42,0.42,0,0,1-.21.07,0.36,0.36,0,0,1-.3-0.16A1.86,1.86,0,0,0,156.3,62a2.66,2.66,0,0,0-.89.14,1.51,1.51,0,0,0-.54.28l-0.14.16a0.36,0.36,0,0,1-.3.16,0.42,0.42,0,0,1-.21-0.07,0.33,0.33,0,0,1-.09-0.52,1.25,1.25,0,0,1,.22-0.27,2.51,2.51,0,0,1,.73-0.41,3.35,3.35,0,0,1,2.46,0,2.51,2.51,0,0,1,.73.41A1.25,1.25,0,0,1,158.48,62.14Zm1.17-1.76a0.31,0.31,0,0,1-.26.45,0.47,0.47,0,0,1-.49-0.26,0.58,0.58,0,0,0-.3-0.35,0.52,0.52,0,0,0-.45.07,0.31,0.31,0,0,1-.35,0,0.42,0.42,0,0,1-.21-0.14,0.31,0.31,0,0,1,.12-0.52A1.28,1.28,0,0,1,159.65,60.38Z" transform="translate(-16.05 -39.32)"/><path class="cls-1" d="M164.17,55.22l0.75-.75,6.45,6.47-1.36.28L166.19,65l-4.64-4.5,3.56-3.56Zm4.62,5.25-2.58-2.58-2.58,2.58h5.16Zm2.58,0.47a4.39,4.39,0,0,1,1.43,2.32,1.34,1.34,0,0,1-.42,1,1.4,1.4,0,0,1-1,.41A1.4,1.4,0,0,1,170,63.26a1.94,1.94,0,0,1,.35-0.93,7,7,0,0,1,.7-1Z" transform="translate(-16.05 -39.32)"/><path class="cls-1" d="M175.56,60.35a2.24,2.24,0,0,1,1.64.68,1.77,1.77,0,0,1,.47,1.71,2.31,2.31,0,0,1-2.11,1.8,4.14,4.14,0,0,1-1.58-.08,1.63,1.63,0,0,1-1.18-.74,1.14,1.14,0,0,0,.8-1.15,2.4,2.4,0,0,1,.54-1.57A1.76,1.76,0,0,1,175.56,60.35Zm6.91-5.77L183,55.13a0.71,0.71,0,0,1,.12,1.05l-3.61,4.1a0.68,0.68,0,0,1-.07.54l-1.17,1.36a0.09,0.09,0,0,1-.14,0,0.1,0.1,0,0,1,0-.07v0a1.89,1.89,0,0,0-.59-1.48A2.26,2.26,0,0,0,176,60h0s0,0,0,0a0.09,0.09,0,0,1,0-.14l1.38-1.15a0.74,0.74,0,0,1,.54,0L182,55Z" transform="translate(-16.05 -39.32)"/><path class="cls-1" d="M190.8,57.87a4.5,4.5,0,1,1-6,0V56.72a3,3,0,0,1,6,0v1.15Zm-5.65,6a3.73,3.73,0,1,0-1.1-2.65A3.61,3.61,0,0,0,185.15,63.87Zm0.26-5a3.4,3.4,0,1,1-1,2.39A3.25,3.25,0,0,1,185.41,58.83ZM190.68,62a3.3,3.3,0,0,0,.09-0.68h-0.16V61.15h0.19a2.53,2.53,0,0,0-.12-0.7l-0.59.16L190,60.33l0.59-.19a2.22,2.22,0,0,0-.33-0.61l-0.26.19-0.09-.14,0.26-.19a3.16,3.16,0,0,0-.49-0.52l-0.35.49-0.26-.19,0.35-.47a1.89,1.89,0,0,0-.63-0.33l-0.09.3-0.14,0,0.12-.3a2.15,2.15,0,0,0-.68-0.12v0.45h-0.37V58.22a4.61,4.61,0,0,0-.68.12L187,58.62l-0.14,0-0.09-.28a1.89,1.89,0,0,0-.63.33l0.35,0.47-0.23.19-0.35-.49a2,2,0,0,0-.52.52l0.26,0.19-0.09.12-0.23-.19a2.58,2.58,0,0,0-.33.63l0.56,0.19-0.12.28-0.59-.16a2.62,2.62,0,0,0-.07.7h0.14v0.16h-0.12a3.3,3.3,0,0,0,.09.68l0.56-.16,0.09,0.28L185,62.3a2.58,2.58,0,0,0,.33.63l0.21-.16,0.09,0.12-0.21.16a3.16,3.16,0,0,0,.49.52l0.35-.49,0.23,0.19-0.35.47a3.54,3.54,0,0,0,.63.33l0.07-.26,0.16,0-0.09.26a4.61,4.61,0,0,0,.68.12V63.78H188v0.45a3.45,3.45,0,0,0,.68-0.12l-0.12-.28,0.14,0,0.09,0.28a1.89,1.89,0,0,0,.63-0.33l-0.35-.47,0.26-.19,0.35,0.49a3.16,3.16,0,0,0,.49-0.52l-0.26-.16,0.09-.14,0.23,0.19a2.75,2.75,0,0,0,.35-0.63L190,62.11l0.09-.28Zm-5.13-5.27v0.61a4.46,4.46,0,0,1,4.5,0V56.72A2.25,2.25,0,1,0,185.55,56.72Zm2.25,6.4a1.9,1.9,0,1,1,1.9-1.9A1.68,1.68,0,0,1,187.8,63.12Z" transform="translate(-16.05 -39.32)"/><path class="cls-1" d="M24.37,70.68A4.88,4.88,0,0,1,20.92,79,4.88,4.88,0,1,1,24.37,70.68ZM24.1,77.3a4.48,4.48,0,0,0-3.18-7.65A4.48,4.48,0,1,0,24.1,77.3ZM19,72.06a7.79,7.79,0,0,0-.26,1.88H16.82a4,4,0,0,1,.94-2.41A7.14,7.14,0,0,0,19,72.06Zm-0.26,2.25A10.21,10.21,0,0,0,19,76.18a6.23,6.23,0,0,0-1.24.54,4,4,0,0,1-.94-2.41h1.95ZM20,70.14a4,4,0,0,0-.84,1.57A5.79,5.79,0,0,1,18,71.26,4.13,4.13,0,0,1,20,70.14ZM18,77a5.79,5.79,0,0,1,1.13-.45A4,4,0,0,0,20,78.11,4.13,4.13,0,0,1,18,77Zm1.15-3a8.94,8.94,0,0,1,.21-1.78,7.59,7.59,0,0,0,1.38.19v1.59H19.14Zm0.21,2.16a8.94,8.94,0,0,1-.21-1.78h1.59V75.9A7.59,7.59,0,0,0,19.35,76.09Zm0.09-4.29A2.39,2.39,0,0,1,20.74,70V72A9.31,9.31,0,0,1,19.45,71.8Zm1.29,6.4a2.39,2.39,0,0,1-1.29-1.76,9.31,9.31,0,0,1,1.29-.16V78.2ZM21.11,70a2.42,2.42,0,0,1,1.27,1.76,8.11,8.11,0,0,1-1.27.16V70Zm1.36,2.11a8.81,8.81,0,0,1,.23,1.78H21.11V72.34A7.83,7.83,0,0,0,22.47,72.15Zm0.23,2.16a8.81,8.81,0,0,1-.23,1.78,7.51,7.51,0,0,0-1.36-.19V74.31h1.59Zm-1.59,2a8.11,8.11,0,0,1,1.27.16,2.35,2.35,0,0,1-1.27,1.76V76.28Zm2.74-5a6.65,6.65,0,0,1-1.12.47,3.79,3.79,0,0,0-.84-1.57A4.11,4.11,0,0,1,23.85,71.24Zm-2,6.87a3.79,3.79,0,0,0,.84-1.57,5.44,5.44,0,0,1,1.13.45A4.17,4.17,0,0,1,21.89,78.11Zm1.17-4.17a10.21,10.21,0,0,0-.23-1.87,7.14,7.14,0,0,0,1.27-.54A4,4,0,0,1,25,73.93h-2Zm-0.23,2.25a10.21,10.21,0,0,0,.23-1.87h2a4,4,0,0,1-.94,2.41A7.14,7.14,0,0,0,22.82,76.18Z" transform="translate(-16.05 -39.32)"/><path class="cls-1" d="M34.12,70.68a4.87,4.87,0,1,1-6.89,6.89A4.87,4.87,0,1,1,34.12,70.68Zm-5.79,3.26a10,10,0,0,1,.26-2.06,6.11,6.11,0,0,1-1.38-.59,4.34,4.34,0,0,0-1,2.65h2.13Zm0,0.38H26.2a4.34,4.34,0,0,0,1,2.65,7.22,7.22,0,0,1,1.38-.59A10,10,0,0,1,28.33,74.31Zm1.29-4.55A4.15,4.15,0,0,0,27.49,71a7.6,7.6,0,0,0,1.22.49A4.29,4.29,0,0,1,29.62,69.76Zm-2.13,7.5a4.41,4.41,0,0,0,2.13,1.22,4.33,4.33,0,0,1-.94-1.73A7.84,7.84,0,0,0,27.49,77.26Zm3-5.11A9,9,0,0,1,29,72a8.46,8.46,0,0,0-.26,2h1.78V72.15Zm-1.78,2.16a8.46,8.46,0,0,0,.26,2,9.42,9.42,0,0,1,1.52-.21V74.31H28.71Zm1.78-4.64q-0.84.21-1.41,1.92a7.68,7.68,0,0,0,1.41.19V69.67Zm0,6.8a7.68,7.68,0,0,0-1.41.19q0.56,1.71,1.41,1.92V76.46Zm0.38-4.69a7.31,7.31,0,0,0,1.41-.19,4,4,0,0,0-.62-1.3,1.63,1.63,0,0,0-.79-0.62v2.11Zm0,0.38v1.78h1.76a8.46,8.46,0,0,0-.26-2A8.88,8.88,0,0,1,30.86,72.15Zm0,3.91a7.08,7.08,0,0,1,1.5.21,8.46,8.46,0,0,0,.26-2H30.86v1.76Zm0,2.51A1.63,1.63,0,0,0,31.65,78a4,4,0,0,0,.62-1.3,7.31,7.31,0,0,0-1.41-.19v2.11Zm3-7.59a4.41,4.41,0,0,0-2.13-1.22,4.47,4.47,0,0,1,.91,1.73A7.14,7.14,0,0,0,33.86,71Zm-2.13,7.5a4.41,4.41,0,0,0,2.13-1.22,7.14,7.14,0,0,0-1.22-.52A4.47,4.47,0,0,1,31.73,78.48ZM33,74.31a10,10,0,0,1-.28,2.06,8.23,8.23,0,0,1,1.41.59,4.34,4.34,0,0,0,1-2.65H33Zm0-.37h2.13a4.34,4.34,0,0,0-1-2.65,7.22,7.22,0,0,1-1.38.59A10,10,0,0,1,33,73.93Z" transform="translate(-16.05 -39.32)"/><path class="cls-1" d="M38,75.36V79h1.69v0.38H35.92V79h1.69V75.36a2,2,0,0,0-.94-1.29,4.8,4.8,0,0,1-.52-0.45A2.3,2.3,0,0,1,35.55,72V71.87a12.27,12.27,0,0,1,.75-3h3a12.27,12.27,0,0,1,.75,3V72a2.3,2.3,0,0,1-.61,1.66,4.8,4.8,0,0,1-.52.45A2,2,0,0,0,38,75.36Zm-1.43-6.12A18.75,18.75,0,0,0,36,71.5h3.66A18.75,18.75,0,0,0,39,69.25H36.56Z" transform="translate(-16.05 -39.32)"/><path class="cls-1" d="M42.49,75.36V79h1.69v0.38H40.42V79h1.69V75.36a2,2,0,0,0-.94-1.29,4.8,4.8,0,0,1-.52-0.45A2.3,2.3,0,0,1,40,72V71.87a12.27,12.27,0,0,1,.75-3h3a12.27,12.27,0,0,1,.75,3V72a2.3,2.3,0,0,1-.61,1.66,4.8,4.8,0,0,1-.52.45A2,2,0,0,0,42.49,75.36Zm-0.19-.84a0.23,0.23,0,0,0,.16,0,5.46,5.46,0,0,1,.73-0.68,3.33,3.33,0,0,0,.47-0.42A2,2,0,0,0,44.17,72V71.87H40.42V72a2,2,0,0,0,.52,1.41,3.33,3.33,0,0,0,.47.42,5.46,5.46,0,0,1,.73.68A0.23,0.23,0,0,0,42.3,74.52Zm-1.24-5.27a18.75,18.75,0,0,0-.59,2.25h3.66a18.75,18.75,0,0,0-.59-2.25H41.06Z" transform="translate(-16.05 -39.32)"/><path class="cls-1" d="M45.91,73.18l1.64-1.31v4.5l-1.64-1.31H44.55V73.18h1.36Z" transform="translate(-16.05 -39.32)"/><path class="cls-1" d="M48.91,73.18l1.64-1.31v4.5l-1.64-1.31H47.55V73.18h1.36Zm2.79,2.44-0.3-.23a2.11,2.11,0,0,0,0-2.53l0.3-.23A2.44,2.44,0,0,1,51.7,75.62Zm1.1,0.75-0.33-.23a3.33,3.33,0,0,0,0-4l0.33-.23A3.75,3.75,0,0,1,52.8,76.37Zm1.27-5.25a5.06,5.06,0,0,1,0,6l-0.33-.23a4.64,4.64,0,0,0,0-5.53Z" transform="translate(-16.05 -39.32)"/><path class="cls-1" d="M61.07,71.12a0.76,0.76,0,0,1,.77.77V76.3a0.83,0.83,0,0,1-.22.57,0.71,0.71,0,0,1-.55.25H55.89a0.83,0.83,0,0,1-.59-0.25A0.77,0.77,0,0,1,55,76.3V71.89a0.71,0.71,0,0,1,.25-0.55,0.86,0.86,0,0,1,.6-0.22h5.18Zm1.48,2,2.3-1.24v4.5l-2.3-1.24v-2Z" transform="translate(-16.05 -39.32)"/><path class="cls-1" d="M70.87,71.12a0.76,0.76,0,0,1,.77.77V76.3a0.83,0.83,0,0,1-.22.57,0.71,0.71,0,0,1-.55.25H65.69a0.83,0.83,0,0,1-.59-0.25,0.77,0.77,0,0,1-.26-0.57V71.89a0.71,0.71,0,0,1,.25-0.55,0.86,0.86,0,0,1,.6-0.22h5.18Zm0.38,5.18V71.89a0.35,0.35,0,0,0-.12-0.27,0.41,0.41,0,0,0-.28-0.11H65.67a0.45,0.45,0,0,0-.29.11,0.33,0.33,0,0,0-.13.27V76.3a0.39,0.39,0,0,0,.14.29,0.44,0.44,0,0,0,.3.13h5.18a0.33,0.33,0,0,0,.27-0.13A0.45,0.45,0,0,0,71.24,76.3Zm1.1-3.19,2.3-1.24v4.5l-2.3-1.24v-2Zm1.9-.54-1.5.77v1.55l1.5,0.77V72.57Z" transform="translate(-16.05 -39.32)"/><path class="cls-1" d="M78.58,71.5h3.56v7.13h-7.5V71.5h3.56v3.8h0.38V71.5Zm0-1.9v1.9H78.21V69.6l-1.29,1.29-0.26-.28,1.73-1.73,1.73,1.73-0.26.28Z" transform="translate(-16.05 -39.32)"/><path class="cls-1" d="M86.64,71.5h3v7.13h-7.5V71.5h3v0.38H82.52v6.38h6.75V71.87H86.64V71.5Zm-2.23-.61-0.26-.28,1.73-1.73,1.73,1.73-0.26.28L86.08,69.6v5.7H85.71V69.6Z" transform="translate(-16.05 -39.32)"/><path class="cls-1" d="M91.33,73.37h5.81V79h-7.5V73.37H91V71.68a2.44,2.44,0,0,1,4.88,0v0.19H95.46V71.68a2.06,2.06,0,1,0-4.12,0v1.69Zm2.25,3a0.7,0.7,0,0,0,.56-0.73,0.75,0.75,0,1,0-1.5,0,0.7,0.7,0,0,0,.56.73v0.77h0.38V76.35ZM93,75.62a0.38,0.38,0,1,1,.38.38A0.33,0.33,0,0,1,93,75.62Z" transform="translate(-16.05 -39.32)"/><path class="cls-1" d="M98.83,73.37h5.81V79h-7.5V73.37h1.31V71.68a2.44,2.44,0,0,1,4.87,0v0.19H103V71.68a2.06,2.06,0,1,0-4.12,0v1.69Zm5.44,5.25V73.75H97.52v4.88h6.75Zm-3.91-3.54a0.75,0.75,0,0,1,1.29.54,0.7,0.7,0,0,1-.56.73v0.77h-0.37V76.35a0.7,0.7,0,0,1-.56-0.73A0.73,0.73,0,0,1,100.35,75.08Zm0.16,0.54a0.38,0.38,0,1,0,.38-0.37A0.33,0.33,0,0,0,100.52,75.62Z" transform="translate(-16.05 -39.32)"/><path class="cls-1" d="M113.64,76.75V77.5h-0.23l-0.47-.73a4.42,4.42,0,0,0-1.76-1.8,5.06,5.06,0,0,0-2-.47v1.88l-4.5-3,4.5-3v1.88a4.85,4.85,0,0,1,3.35,1.31A4.36,4.36,0,0,1,113.64,76.75Z" transform="translate(-16.05 -39.32)"/><path class="cls-1" d="M122.64,76.75V77.5h-0.23l-0.47-.73a4.42,4.42,0,0,0-1.76-1.8,5.06,5.06,0,0,0-2-.47v1.88l-4.5-3,4.5-3v1.88a4.85,4.85,0,0,1,3.35,1.31A4.36,4.36,0,0,1,122.64,76.75Zm-0.37-.16q0-.16,0-0.43A4.51,4.51,0,0,0,122,75.2a3.51,3.51,0,0,0-.63-1.2,3.78,3.78,0,0,0-1.37-.95,5.41,5.41,0,0,0-2.26-.43V71.1l-3.47,2.27,3.47,2.27V74.12a5.69,5.69,0,0,1,2.66.54A4.92,4.92,0,0,1,122.27,76.58Z" transform="translate(-16.05 -39.32)"/><path class="cls-1" d="M127.52,70.77h1.88v0.35h-0.47l-0.56,6.82a0.68,0.68,0,0,1-.68.68h-3.3a0.68,0.68,0,0,1-.68-0.68l-0.56-6.82h-0.49V70.77h1.88V70.3a0.68,0.68,0,0,1,.68-0.68h1.64a0.68,0.68,0,0,1,.68.68v0.47Zm-2.74,6.75h0.33l-0.26-5.65h-0.33Zm0.09-7.22v0.47h2.3V70.3a0.29,0.29,0,0,0-.33-0.33H125.2A0.29,0.29,0,0,0,124.87,70.3Zm1.31,7.22V71.87h-0.33v5.65h0.33Zm1.08,0,0.26-5.65h-0.33l-0.26,5.65h0.33Z" transform="translate(-16.05 -39.32)"/><path class="cls-1" d="M136.14,70.77v0.35h-0.47l-0.56,6.82a0.68,0.68,0,0,1-.68.68h-3.3a0.68,0.68,0,0,1-.68-0.68l-0.56-6.82h-0.49V70.77h1.88V70.3a0.68,0.68,0,0,1,.68-0.68h1.64a0.68,0.68,0,0,1,.68.68v0.47h1.88Zm-1.36,7.15,0.54-6.8h-5.09l0.54,6.8v0a0.3,0.3,0,0,0,.35.33h3.3a0.3,0.3,0,0,0,.35-0.33v0Zm-3.19-6,0.26,5.65h-0.33l-0.26-5.65h0.33Zm0-1.57v0.47h2.3V70.3a0.29,0.29,0,0,0-.33-0.33h-1.64A0.29,0.29,0,0,0,131.62,70.3Zm1,7.22V71.87h0.33v5.65H132.6Zm1.66-5.65L134,77.52h-0.33l0.23-5.65h0.35Z" transform="translate(-16.05 -39.32)"/><path class="cls-1" d="M138.39,73.75a2.25,2.25,0,1,1,0-4.5h6a2.25,2.25,0,1,1,0,4.5h-6Zm6,0.75a2.25,2.25,0,1,1,0,4.5h-6a2.25,2.25,0,1,1,0-4.5h6Zm-7.05,3.3a1.47,1.47,0,1,0-.45-1.05A1.44,1.44,0,0,0,137.34,77.8Zm0.26-1.85a1.13,1.13,0,1,1-.33.8A1.08,1.08,0,0,1,137.6,75.95Zm7.85-5.51a1.47,1.47,0,1,0,.45,1.05A1.44,1.44,0,0,0,145.45,70.44Zm-0.26,1.85a1.13,1.13,0,1,1,.33-0.8A1.08,1.08,0,0,1,145.19,72.29Z" transform="translate(-16.05 -39.32)"/><path class="cls-1" d="M148.89,69.25h6a2.25,2.25,0,1,1,0,4.5h-6A2.25,2.25,0,1,1,148.89,69.25Zm6,5.25a2.25,2.25,0,1,1,0,4.5h-6a2.25,2.25,0,1,1,0-4.5h6Zm-6-4.87a1.84,1.84,0,0,0-1.34.55A1.79,1.79,0,0,0,147,71.5a1.88,1.88,0,0,0,1.88,1.88h6a1.88,1.88,0,0,0,0-3.75h-6Zm6,5.25h-6a1.88,1.88,0,0,0,0,3.75h6a1.88,1.88,0,0,0,1.88-1.87,1.79,1.79,0,0,0-.56-1.32A1.84,1.84,0,0,0,154.87,74.87Zm-7,.82a1.47,1.47,0,1,1-.45,1.05A1.44,1.44,0,0,1,147.84,75.69Zm1.85,0.26a1.13,1.13,0,1,0,.33.8A1.08,1.08,0,0,0,149.69,75.95Zm4.15-5.51a1.47,1.47,0,1,1-.45,1.05A1.44,1.44,0,0,1,153.84,70.44Zm1.85,0.26a1.13,1.13,0,1,0,.33.8A1.08,1.08,0,0,0,155.69,70.7Z" transform="translate(-16.05 -39.32)"/><path class="cls-1" d="M158.57,70.68a4.87,4.87,0,1,1-1.43,3.45A4.7,4.7,0,0,1,158.57,70.68Zm0.27,6.62A4.5,4.5,0,1,0,162,69.62v2.25h0.38V70A4,4,0,0,1,165,71.38a4.07,4.07,0,0,1-3,6.82,4,4,0,0,1-2.89-1.2,3.91,3.91,0,0,1-1.21-2.88,4,4,0,0,1,1.2-2.91l-0.26-.28A4.53,4.53,0,0,0,158.84,77.3Zm0.69-5.66a4.44,4.44,0,0,0,.48.73q0.5,0.7,1,1.38l0.52,0.7,0,0a0.56,0.56,0,0,0,.45.23,0.6,0.6,0,0,0,.59-0.59,0.58,0.58,0,0,0-.19-0.42l-0.07-.07Z" transform="translate(-16.05 -39.32)"/><path class="cls-1" d="M175.21,70.68a4.88,4.88,0,1,1-6.89,0L168.6,71a4.46,4.46,0,1,0,3.54-1.31v2.23h-0.37V69.25A4.7,4.7,0,0,1,175.21,70.68Zm-3.89,3.82,0,0q-0.14-.16-0.35-0.46l-0.66-.9-0.74-1a1.56,1.56,0,0,1-.27-0.43,4.55,4.55,0,0,1,.74.48l1.42,1,0.68,0.49,0,0s0,0,0,0a0.58,0.58,0,0,1,.19.42,0.6,0.6,0,0,1-.59.59A0.53,0.53,0,0,1,171.32,74.5Z" transform="translate(-16.05 -39.32)"/><path class="cls-1" d="M178.18,70.41a5.26,5.26,0,1,1-1.54,3.71A5.06,5.06,0,0,1,178.18,70.41Zm-0.6,3.71a0.19,0.19,0,1,0,.19-0.19A0.17,0.17,0,0,0,177.58,74.12Zm0.89-2q0.09-.19,0-0.26a0.19,0.19,0,0,0-.19.33A0.16,0.16,0,0,0,178.47,72.15Zm0,4.2q0.14-.07,0-0.26a0.16,0.16,0,0,0-.23-0.07A0.19,0.19,0,0,0,178.42,76.35Zm1.31-6a0.16,0.16,0,0,0-.07.26q0.07,0.14.26,0a0.16,0.16,0,0,0,.07-0.23A0.16,0.16,0,0,0,179.74,70.39ZM180,77.78a0.16,0.16,0,0,0-.07-0.23q-0.19-.09-0.26,0A0.19,0.19,0,0,0,180,77.78Zm2.09-3.33a0.33,0.33,0,0,0,.14-0.52,0.37,0.37,0,0,0-.33-0.19L181,72.25q-0.07-.14-0.26,0t0,0.26l0.87,1.48a0.33,0.33,0,0,0,0,.38l0,0.06,0,0.06,0,0v2.86a0.19,0.19,0,1,0,.38,0V74.45Zm0-4.45a0.19,0.19,0,1,0-.19.19A0.17,0.17,0,0,0,182.08,70Zm-0.37,8.25a0.19,0.19,0,1,0,.19-0.19A0.17,0.17,0,0,0,181.71,78.25Zm2.41-7.59a0.19,0.19,0,1,0-.33-0.19,0.16,0.16,0,0,0,.07.23Q184,70.79,184.12,70.65ZM184,77.85a0.16,0.16,0,0,0,.07-0.26q-0.07-.14-0.26,0a0.16,0.16,0,0,0-.07.23A0.16,0.16,0,0,0,184,77.85Zm1.5-5.62a0.19,0.19,0,1,0-.19-0.33q-0.14.07,0,.26A0.16,0.16,0,0,0,185.55,72.22Zm0.07,4.05a0.16,0.16,0,0,0-.07-0.26,0.16,0.16,0,0,0-.23.07q-0.09.19,0,.26A0.16,0.16,0,0,0,185.62,76.28Zm0.21-2.16a0.19,0.19,0,1,0,.19-0.19A0.17,0.17,0,0,0,185.83,74.12Z" transform="translate(-16.05 -39.32)"/><path class="cls-1" d="M17.58,84.81a5.26,5.26,0,0,1,7.43,0,5.25,5.25,0,0,1-3.71,9A5.25,5.25,0,0,1,17.58,84.81ZM24.74,92a4.63,4.63,0,0,0,1.05-1.55,5,5,0,0,0,0-3.8A5,5,0,0,0,23.2,84a5,5,0,0,0-3.8,0,5,5,0,0,0-2.6,2.6,5,5,0,0,0,0,3.8A5,5,0,0,0,19.4,93a5,5,0,0,0,3.8,0A4.63,4.63,0,0,0,24.74,92Zm-7.57-3.26a0.19,0.19,0,1,1,.19-0.19A0.17,0.17,0,0,1,17.17,88.71Zm0.56-2.06a0.19,0.19,0,1,1,.19-0.19A0.17,0.17,0,0,1,17.74,86.65Zm0,4.13a0.19,0.19,0,1,1,.19-0.19A0.17,0.17,0,0,1,17.74,90.77Zm1.5-5.62A0.19,0.19,0,1,1,19.42,85,0.17,0.17,0,0,1,19.24,85.15Zm0,7.13a0.19,0.19,0,1,1,.19-0.19A0.17,0.17,0,0,1,19.24,92.27Zm2.39-3.94a0.33,0.33,0,0,1-.14.52v2.86a0.19,0.19,0,0,1-.37,0V88.85L21,88.71a0.33,0.33,0,0,1,0-.37L20.1,86.86a0.16,0.16,0,0,1,.07-0.26,0.16,0.16,0,0,1,.23.07l0.89,1.48A0.37,0.37,0,0,1,21.63,88.33ZM21.3,84.58a0.19,0.19,0,1,1,.19-0.19A0.17,0.17,0,0,1,21.3,84.58Zm0,8.25a0.19,0.19,0,1,1,.19-0.19A0.17,0.17,0,0,1,21.3,92.83Zm2.06-7.69A0.19,0.19,0,1,1,23.55,85,0.17,0.17,0,0,1,23.36,85.15Zm0,7.13a0.19,0.19,0,1,1,.19-0.19A0.17,0.17,0,0,1,23.36,92.27Zm1.5-5.62A0.19,0.19,0,1,1,25,86.46,0.17,0.17,0,0,1,24.86,86.65Zm0,4.13A0.19,0.19,0,1,1,25,90.58,0.17,0.17,0,0,1,24.86,90.77Zm0.56-2.06a0.19,0.19,0,1,1,.19-0.19A0.17,0.17,0,0,1,25.42,88.71Z" transform="translate(-16.05 -39.32)"/><path class="cls-1" d="M28.1,89.65H27.77a1.17,1.17,0,0,1-.86-0.36,1.2,1.2,0,0,1-.36-0.88,1.25,1.25,0,0,1,.33-0.84,1.08,1.08,0,0,1,.77-0.4V87a1.84,1.84,0,0,1,1.83-1.83,1.74,1.74,0,0,1,1.15.41,1.83,1.83,0,0,1,.63,1h0.19A1.52,1.52,0,0,1,33,88.1a1.51,1.51,0,0,1-.45,1.09,1.45,1.45,0,0,1-1.08.46H31l0.77-1.12H30.65L31,87.4H28.52Zm2.41-1.87H28.82l-0.35,1.88h1.22L29,91.9l1.55-2.25,0.52-.75H30.14Z" transform="translate(-16.05 -39.32)"/></svg>